<svg width="42" height="42" viewBox="0 0 42 42" fill="none" xmlns="http://www.w3.org/2000/svg">
<path d="M19.6875 29.3124H22.3124V22.3124H29.3124V19.6875H22.3124V12.6875H19.6875V19.6875H12.6875V22.3124H19.6875V29.3124ZM21.0029 37.6249C18.7035 37.6249 16.5422 37.1886 14.519 36.3159C12.4957 35.4432 10.7358 34.2589 9.23913 32.763C7.74247 31.267 6.55762 29.5078 5.68457 27.4855C4.81152 25.4631 4.375 23.3023 4.375 21.0029C4.375 18.7035 4.81133 16.5422 5.684 14.519C6.55667 12.4957 7.74098 10.7358 9.23694 9.23913C10.7329 7.74247 12.4921 6.55762 14.5145 5.68457C16.5368 4.81152 18.6976 4.375 20.997 4.375C23.2964 4.375 25.4577 4.81134 27.481 5.684C29.5042 6.55667 31.2642 7.74098 32.7608 9.23694C34.2574 10.7329 35.4423 12.4921 36.3153 14.5145C37.1884 16.5368 37.6249 18.6976 37.6249 20.997C37.6249 23.2964 37.1886 25.4577 36.3159 27.481C35.4432 29.5042 34.2589 31.2642 32.763 32.7608C31.267 34.2574 29.5078 35.4423 27.4855 36.3153C25.4631 37.1884 23.3023 37.6249 21.0029 37.6249ZM21 35C24.9083 35 28.2187 33.6437 30.9312 30.9312C33.6437 28.2187 35 24.9083 35 21C35 17.0916 33.6437 13.7812 30.9312 11.0687C28.2187 8.35621 24.9083 6.99996 21 6.99996C17.0916 6.99996 13.7812 8.35621 11.0687 11.0687C8.35621 13.7812 6.99996 17.0916 6.99996 21C6.99996 24.9083 8.35621 28.2187 11.0687 30.9312C13.7812 33.6437 17.0916 35 21 35Z" fill="#929292"/>
</svg>
