<svg width="14" height="14" viewBox="0 0 14 14" fill="none" xmlns="http://www.w3.org/2000/svg">
<path d="M3.66598 7.83331C3.89725 7.83331 4.09408 7.75237 4.25646 7.59048C4.41885 7.42859 4.50005 7.23201 4.50005 7.00075C4.50005 6.76948 4.4191 6.57265 4.25721 6.41026C4.09533 6.24788 3.89875 6.16668 3.66748 6.16668C3.43621 6.16668 3.23939 6.24762 3.077 6.40951C2.91461 6.5714 2.83341 6.76798 2.83341 6.99925C2.83341 7.23051 2.91436 7.42734 3.07625 7.58973C3.23814 7.75212 3.43471 7.83331 3.66598 7.83331ZM6.99931 7.83331C7.23058 7.83331 7.42741 7.75237 7.5898 7.59048C7.75219 7.42859 7.83338 7.23201 7.83338 7.00075C7.83338 6.76948 7.75244 6.57265 7.59055 6.41026C7.42866 6.24788 7.23208 6.16668 7.00081 6.16668C6.76955 6.16668 6.57272 6.24762 6.41033 6.40951C6.24794 6.5714 6.16675 6.76798 6.16675 6.99925C6.16675 7.23051 6.24769 7.42734 6.40958 7.58973C6.57147 7.75212 6.76805 7.83331 6.99931 7.83331ZM10.3326 7.83331C10.5639 7.83331 10.7607 7.75237 10.9231 7.59048C11.0855 7.42859 11.1667 7.23201 11.1667 7.00075C11.1667 6.76948 11.0858 6.57265 10.9239 6.41026C10.762 6.24788 10.5654 6.16668 10.3341 6.16668C10.1029 6.16668 9.90605 6.24762 9.74367 6.40951C9.58128 6.5714 9.50008 6.76798 9.50008 6.99925C9.50008 7.23051 9.58103 7.42734 9.74292 7.58973C9.9048 7.75212 10.1014 7.83331 10.3326 7.83331ZM7.00118 13.3333C6.12523 13.3333 5.30187 13.1671 4.53111 12.8346C3.76035 12.5022 3.08989 12.051 2.51975 11.4811C1.94959 10.9112 1.49822 10.2411 1.16563 9.47066C0.833043 8.70025 0.666748 7.87707 0.666748 7.00111C0.666748 6.12516 0.83297 5.3018 1.16541 4.53105C1.49786 3.76028 1.94903 3.08982 2.51891 2.51968C3.08881 1.94952 3.75898 1.49815 4.5294 1.16556C5.29981 0.832975 6.12299 0.666679 6.99895 0.666679C7.8749 0.666679 8.69826 0.832902 9.46902 1.16535C10.2398 1.49779 10.9102 1.94896 11.4804 2.51885C12.0505 3.08875 12.5019 3.75891 12.8345 4.52933C13.1671 5.29974 13.3334 6.12292 13.3334 6.99888C13.3334 7.87484 13.1672 8.69819 12.8347 9.46895C12.5023 10.2397 12.0511 10.9102 11.4812 11.4803C10.9113 12.0505 10.2412 12.5018 9.47073 12.8344C8.70032 13.167 7.87714 13.3333 7.00118 13.3333ZM7.00006 12.3333C8.48895 12.3333 9.75007 11.8167 10.7834 10.7833C11.8167 9.75 12.3334 8.48889 12.3334 7C12.3334 5.51111 11.8167 4.25 10.7834 3.21666C9.75007 2.18333 8.48895 1.66666 7.00006 1.66666C5.51118 1.66666 4.25006 2.18333 3.21673 3.21666C2.1834 4.25 1.66673 5.51111 1.66673 7C1.66673 8.48889 2.1834 9.75 3.21673 10.7833C4.25006 11.8167 5.51118 12.3333 7.00006 12.3333Z" fill="#0E4A7E"/>
</svg>
