<svg width="34" height="34" viewBox="0 0 34 34" fill="none" xmlns="http://www.w3.org/2000/svg">
<path d="M14.5163 24.4442L26.2817 12.6789L24.4375 10.8347L14.5163 20.7558L9.52881 15.7683L7.68462 17.6125L14.5163 24.4442ZM17.0029 33.625C14.7035 33.625 12.5422 33.1886 10.519 32.316C8.4957 31.4433 6.73575 30.259 5.23913 28.763C3.74247 27.2671 2.55762 25.5079 1.68457 23.4855C0.811523 21.4632 0.375 19.3023 0.375 17.003C0.375 14.7036 0.811334 12.5423 1.684 10.519C2.55667 8.49576 3.74098 6.73582 5.23694 5.23919C6.73293 3.74253 8.4921 2.55768 10.5145 1.68463C12.5368 0.811586 14.6976 0.375061 16.997 0.375061C19.2964 0.375061 21.4577 0.811396 23.481 1.68406C25.5042 2.55673 27.2642 3.74104 28.7608 5.237C30.2574 6.73299 31.4423 8.49216 32.3153 10.5145C33.1884 12.5368 33.6249 14.6977 33.6249 16.9971C33.6249 19.2965 33.1886 21.4578 32.3159 23.481C31.4432 25.5043 30.2589 27.2642 28.763 28.7609C27.267 30.2575 25.5078 31.4424 23.4855 32.3154C21.4631 33.1885 19.3023 33.625 17.0029 33.625Z" fill="#00CD73"/>
</svg>
