<svg width="14" height="14" viewBox="0 0 14 14" fill="none" xmlns="http://www.w3.org/2000/svg">
<path d="M6.99998 10.4727L3.08657 6.55933L4.05257 5.56511L6.3125 7.82504V0.125015H7.68745V7.82504L9.94738 5.56511L10.9134 6.55933L6.99998 10.4727ZM1.78206 13.875C1.31902 13.875 0.927083 13.7146 0.60625 13.3937C0.285417 13.0729 0.125 12.681 0.125 12.2179V9.73237H1.49998V12.2179C1.49998 12.2884 1.52936 12.3531 1.58811 12.4119C1.64689 12.4706 1.71154 12.5 1.78206 12.5H12.2179C12.2884 12.5 12.3531 12.4706 12.4118 12.4119C12.4706 12.3531 12.5 12.2884 12.5 12.2179V9.73237H13.875V12.2179C13.875 12.681 13.7145 13.0729 13.3937 13.3937C13.0729 13.7146 12.6809 13.875 12.2179 13.875H1.78206Z" fill="#1A8ADD"/>
</svg>
