<svg width="14" height="14" viewBox="0 0 14 14" fill="none" xmlns="http://www.w3.org/2000/svg">
<path d="M7.00001 10.4727L3.0866 6.55931L4.0526 5.5651L6.31253 7.82502V0.125H7.68749V7.82502L9.94741 5.5651L10.9134 6.55931L7.00001 10.4727ZM1.78209 13.875C1.31905 13.875 0.927114 13.7145 0.606281 13.3937C0.285447 13.0729 0.125031 12.6809 0.125031 12.2179V9.73236H1.50001V12.2179C1.50001 12.2884 1.52939 12.3531 1.58814 12.4118C1.64692 12.4706 1.71157 12.5 1.78209 12.5H12.2179C12.2884 12.5 12.3531 12.4706 12.4119 12.4118C12.4706 12.3531 12.5 12.2884 12.5 12.2179V9.73236H13.875V12.2179C13.875 12.6809 13.7146 13.0729 13.3937 13.3937C13.0729 13.7145 12.681 13.875 12.2179 13.875H1.78209Z" fill="white"/>
</svg>
