<svg width="22" height="22" viewBox="0 0 22 22" fill="none" xmlns="http://www.w3.org/2000/svg">
<path d="M4.86604 18.7916C4.403 18.7916 4.01107 18.6312 3.69023 18.3103C3.3694 17.9895 3.20898 17.5976 3.20898 17.1345V4.86537C3.20898 4.40233 3.3694 4.01039 3.69023 3.68956C4.01107 3.36872 4.403 3.20831 4.86604 3.20831H12.8005L11.4255 4.58329H4.86604C4.79552 4.58329 4.73087 4.61267 4.6721 4.67142C4.61334 4.7302 4.58396 4.79485 4.58396 4.86537V17.1345C4.58396 17.2051 4.61334 17.2697 4.6721 17.3285C4.73087 17.3872 4.79552 17.4166 4.86604 17.4166H17.1352C17.2057 17.4166 17.2704 17.3872 17.3292 17.3285C17.3879 17.2697 17.4173 17.2051 17.4173 17.1345V10.5169L18.7923 9.14194V17.1345C18.7923 17.5976 18.6319 17.9895 18.311 18.3103C17.9902 18.6312 17.5983 18.7916 17.1352 18.7916H4.86604ZM8.70898 13.2916V10.145L17.0136 1.84037C17.1558 1.69816 17.3121 1.59445 17.4825 1.52923C17.6529 1.46401 17.8263 1.4314 18.0026 1.4314C18.1824 1.4314 18.3551 1.46401 18.5208 1.52923C18.6865 1.59445 18.8375 1.69522 18.9738 1.83154L20.1249 2.97914C20.2578 3.12133 20.3597 3.27822 20.4308 3.4498C20.5019 3.62137 20.5374 3.7953 20.5374 3.97157C20.5374 4.14786 20.5072 4.31886 20.4467 4.48456C20.3861 4.65025 20.2848 4.80419 20.1426 4.9464L11.8115 13.2916H8.70898ZM10.084 11.9166H11.2263L16.9396 6.20329L16.3684 5.63214L15.7568 5.04336L10.084 10.7162V11.9166Z" fill="#0D2D4F"/>
</svg>
