<svg width="14" height="14" viewBox="0 0 14 14" fill="none" xmlns="http://www.w3.org/2000/svg">
<path d="M9.31547 10.0179L10.018 9.3154L7.50005 6.79728V3.66667H6.50008V7.20257L9.31547 10.0179ZM7.00118 13.3333C6.12523 13.3333 5.30187 13.1671 4.53112 12.8347C3.76035 12.5022 3.08989 12.051 2.51975 11.4812C1.94959 10.9113 1.49822 10.2411 1.16563 9.47067C0.833043 8.70026 0.666748 7.87707 0.666748 7.00112C0.666748 6.12516 0.83297 5.30181 1.16541 4.53105C1.49786 3.76028 1.94903 3.08983 2.51891 2.51968C3.08881 1.94953 3.75898 1.49816 4.5294 1.16557C5.29981 0.832978 6.12299 0.666683 6.99895 0.666683C7.87491 0.666683 8.69826 0.832906 9.46902 1.16535C10.2398 1.4978 10.9102 1.94896 11.4804 2.51885C12.0505 3.08875 12.5019 3.75891 12.8345 4.52933C13.1671 5.29975 13.3334 6.12293 13.3334 6.99888C13.3334 7.87484 13.1672 8.6982 12.8347 9.46895C12.5023 10.2397 12.0511 10.9102 11.4812 11.4803C10.9113 12.0505 10.2412 12.5018 9.47073 12.8344C8.70032 13.167 7.87714 13.3333 7.00118 13.3333ZM7.00007 12.3333C8.47784 12.3333 9.73618 11.8139 10.7751 10.775C11.814 9.73611 12.3334 8.47778 12.3334 7C12.3334 5.52222 11.814 4.26389 10.7751 3.225C9.73618 2.18611 8.47784 1.66667 7.00007 1.66667C5.52229 1.66667 4.26395 2.18611 3.22506 3.225C2.18618 4.26389 1.66673 5.52222 1.66673 7C1.66673 8.47778 2.18618 9.73611 3.22506 10.775C4.26395 11.8139 5.52229 12.3333 7.00007 12.3333Z" fill="#B96904"/>
</svg>
