<svg width="21" height="16" viewBox="0 0 21 16" fill="none" xmlns="http://www.w3.org/2000/svg">
<path d="M15.0577 6.75001V5.25006H20.5576V6.75001H15.0577ZM7.99997 7.69231C7.03749 7.69231 6.21354 7.34961 5.52813 6.66421C4.84271 5.97879 4.5 5.15484 4.5 4.19236C4.5 3.22986 4.84271 2.40591 5.52813 1.72051C6.21354 1.03509 7.03749 0.692383 7.99997 0.692383C8.96246 0.692383 9.78641 1.03509 10.4718 1.72051C11.1572 2.40591 11.4999 3.22986 11.4999 4.19236C11.4999 5.15484 11.1572 5.97879 10.4718 6.66421C9.78641 7.34961 8.96246 7.69231 7.99997 7.69231ZM0.500025 15.3077V13.0846C0.500025 12.5949 0.633025 12.1414 0.899025 11.7241C1.16506 11.3068 1.52051 10.986 1.96537 10.7616C2.95384 10.277 3.95096 9.91351 4.95673 9.67121C5.96249 9.42891 6.97691 9.30776 7.99997 9.30776C9.02304 9.30776 10.0375 9.42891 11.0432 9.67121C12.049 9.91351 13.0461 10.277 14.0346 10.7616C14.4794 10.986 14.8349 11.3068 15.1009 11.7241C15.3669 12.1414 15.5 12.5949 15.5 13.0846V15.3077H0.500025ZM1.99998 13.8077H14V13.0846C14 12.8821 13.9413 12.6946 13.824 12.5221C13.7067 12.3497 13.5474 12.209 13.3461 12.1C12.4846 11.6757 11.6061 11.3542 10.7107 11.1356C9.81524 10.917 8.91167 10.8077 7.99997 10.8077C7.08827 10.8077 6.18471 10.917 5.28928 11.1356C4.39384 11.3542 3.51536 11.6757 2.65383 12.1C2.45254 12.209 2.29325 12.3497 2.17595 12.5221C2.05863 12.6946 1.99998 12.8821 1.99998 13.0846V13.8077ZM7.99997 6.19236C8.54998 6.19236 9.02081 5.99653 9.41247 5.60486C9.80414 5.21319 9.99998 4.74236 9.99998 4.19236C9.99998 3.64236 9.80414 3.17153 9.41247 2.77986C9.02081 2.38819 8.54998 2.19236 7.99997 2.19236C7.44998 2.19236 6.97914 2.38819 6.58747 2.77986C6.19581 3.17153 5.99997 3.64236 5.99997 4.19236C5.99997 4.74236 6.19581 5.21319 6.58747 5.60486C6.97914 5.99653 7.44998 6.19236 7.99997 6.19236Z" fill="white"/>
</svg>
