<svg width="20" height="20" viewBox="0 0 20 20" fill="none" xmlns="http://www.w3.org/2000/svg">
<g id="&#195;&#141;CONE ERRO">
<path id="Vector" d="M10 13.9423C10.1907 13.9423 10.3506 13.8778 10.4796 13.7488C10.6086 13.6198 10.6731 13.4599 10.6731 13.2692C10.6731 13.0785 10.6086 12.9187 10.4796 12.7897C10.3506 12.6607 10.1907 12.5962 10 12.5962C9.80931 12.5962 9.64946 12.6607 9.52046 12.7897C9.39146 12.9187 9.32696 13.0785 9.32696 13.2692C9.32696 13.4599 9.39146 13.6198 9.52046 13.7488C9.64946 13.8778 9.80931 13.9423 10 13.9423ZM9.37504 10.8975H10.625V5.89746H9.37504V10.8975ZM10.0014 17.9167C8.90647 17.9167 7.87728 17.7089 6.91383 17.2933C5.95037 16.8778 5.1123 16.3138 4.39962 15.6015C3.68693 14.8891 3.12271 14.0514 2.70698 13.0884C2.29124 12.1253 2.08337 11.0964 2.08337 10.0014C2.08337 8.90647 2.29115 7.87728 2.70671 6.91383C3.12226 5.95037 3.68622 5.11231 4.39858 4.39963C5.11096 3.68693 5.94866 3.12272 6.91169 2.70698C7.8747 2.29124 8.90368 2.08337 9.99863 2.08337C11.0936 2.08337 12.1228 2.29115 13.0862 2.70671C14.0497 3.12226 14.8877 3.68622 15.6004 4.39858C16.3131 5.11096 16.8773 5.94866 17.2931 6.91169C17.7088 7.8747 17.9167 8.90368 17.9167 9.99863C17.9167 11.0936 17.7089 12.1228 17.2933 13.0862C16.8778 14.0497 16.3138 14.8877 15.6015 15.6004C14.8891 16.3131 14.0514 16.8773 13.0884 17.2931C12.1253 17.7088 11.0964 17.9167 10.0014 17.9167Z" fill="#B20A0E"/>
</g>
</svg>
