<svg width="12" height="12" viewBox="0 0 12 12" fill="none" xmlns="http://www.w3.org/2000/svg">
<path d="M6.16659 9.16665H7.16655V2.83334H4.83325V3.83331H6.16659V9.16665ZM1.53839 11.6666C1.20163 11.6666 0.916585 11.55 0.683252 11.3166C0.449919 11.0833 0.333252 10.7983 0.333252 10.4615V1.53848C0.333252 1.20172 0.449919 0.916677 0.683252 0.683344C0.916585 0.45001 1.20163 0.333344 1.53839 0.333344H10.4614C10.7982 0.333344 11.0832 0.45001 11.3166 0.683344C11.5499 0.916677 11.6666 1.20172 11.6666 1.53848V10.4615C11.6666 10.7983 11.5499 11.0833 11.3166 11.3166C11.0832 11.55 10.7982 11.6666 10.4614 11.6666H1.53839ZM1.53839 10.6667H10.4614C10.5127 10.6667 10.5597 10.6453 10.6025 10.6026C10.6452 10.5598 10.6666 10.5128 10.6666 10.4615V1.53848C10.6666 1.48719 10.6452 1.44017 10.6025 1.39743C10.5597 1.35469 10.5127 1.33333 10.4614 1.33333H1.53839C1.4871 1.33333 1.44008 1.35469 1.39734 1.39743C1.3546 1.44017 1.33324 1.48719 1.33324 1.53848V10.4615C1.33324 10.5128 1.3546 10.5598 1.39734 10.6026C1.44008 10.6453 1.4871 10.6667 1.53839 10.6667Z" fill="#0D2D4F"/>
</svg>
