<svg width="16" height="20" viewBox="0 0 16 20" fill="none" xmlns="http://www.w3.org/2000/svg">
<path d="M4.25003 15.75H11.75V14.25H4.25003V15.75ZM4.25003 11.75H11.75V10.25H4.25003V11.75ZM2.30773 19.5C1.8026 19.5 1.37503 19.325 1.02503 18.975C0.675031 18.625 0.500031 18.1974 0.500031 17.6923V2.3077C0.500031 1.80257 0.675031 1.375 1.02503 1.025C1.37503 0.675 1.8026 0.5 2.30773 0.5H10.25L15.5 5.74995V17.6923C15.5 18.1974 15.325 18.625 14.975 18.975C14.625 19.325 14.1974 19.5 13.6923 19.5H2.30773ZM9.50003 6.49995V1.99998H2.30773C2.2308 1.99998 2.16027 2.03203 2.09616 2.09613C2.03206 2.16024 2.00001 2.23077 2.00001 2.3077V17.6923C2.00001 17.7692 2.03206 17.8397 2.09616 17.9038C2.16027 17.9679 2.2308 18 2.30773 18H13.6923C13.7692 18 13.8397 17.9679 13.9039 17.9038C13.968 17.8397 14 17.7692 14 17.6923V6.49995H9.50003Z" fill="white"/>
</svg>
