<svg width="20" height="20" viewBox="0 0 20 20" fill="none" xmlns="http://www.w3.org/2000/svg">
<g id="&#195;&#141;CONE PESQUISA">
<path id="Vector" d="M16.2851 17.1474L11.0511 11.9134C10.6345 12.2575 10.1553 12.5267 9.61363 12.7211C9.07197 12.9156 8.51161 13.0128 7.93255 13.0128C6.50825 13.0128 5.30281 12.5196 4.31626 11.5333C3.3297 10.547 2.83643 9.34191 2.83643 7.91798C2.83643 6.49403 3.32958 5.28847 4.31588 4.30129C5.30219 3.31412 6.50731 2.82054 7.93126 2.82054C9.35519 2.82054 10.5607 3.31382 11.5479 4.30038C12.5351 5.28693 13.0287 6.49236 13.0287 7.91667C13.0287 8.51175 12.9288 9.08013 12.729 9.62179C12.5292 10.1635 12.2627 10.6346 11.9293 11.0352L17.1633 16.2692L16.2851 17.1474ZM7.93255 11.7628C9.00627 11.7628 9.91573 11.3902 10.6609 10.645C11.4061 9.89985 11.7787 8.99039 11.7787 7.91667C11.7787 6.84294 11.4061 5.93349 10.6609 5.18829C9.91573 4.4431 9.00627 4.0705 7.93255 4.0705C6.85883 4.0705 5.94937 4.4431 5.20418 5.18829C4.459 5.93349 4.08641 6.84294 4.08641 7.91667C4.08641 8.99039 4.459 9.89985 5.20418 10.645C5.94937 11.3902 6.85883 11.7628 7.93255 11.7628Z" fill="#C4C4C4"/>
</g>
</svg>
