<svg width="14" height="14" viewBox="0 0 14 14" fill="none" xmlns="http://www.w3.org/2000/svg">
<path d="M6.31252 10.4727V2.7727L4.0526 5.03263L3.08659 4.03843L7 0.125L10.9134 4.03843L9.9474 5.03263L7.68748 2.7727V10.4727H6.31252ZM1.78208 13.875C1.31904 13.875 0.927106 13.7145 0.606273 13.3937C0.28544 13.0729 0.125023 12.6809 0.125023 12.2179V9.73236H1.5V12.2179C1.5 12.2884 1.52938 12.3531 1.58814 12.4118C1.64691 12.4706 1.71156 12.5 1.78208 12.5H12.2179C12.2884 12.5 12.3531 12.4706 12.4119 12.4118C12.4706 12.3531 12.5 12.2884 12.5 12.2179V9.73236H13.875V12.2179C13.875 12.6809 13.7146 13.0729 13.3937 13.3937C13.0729 13.7145 12.681 13.875 12.2179 13.875H1.78208Z" fill="white"/>
</svg>
